<svg version="1.1" xmlns="http://www.w3.org/2000/svg" xmlns:xlink="http://www.w3.org/1999/xlink" width="128.70444" height="322.79402" viewBox="0,0,128.70444,322.79402"><g transform="translate(-173.99664,-19.58409)"><g data-paper-data="{&quot;isPaintingLayer&quot;:true}" fill-rule="nonzero" stroke="#000000" stroke-linecap="butt" stroke-linejoin="miter" stroke-miterlimit="10" stroke-dasharray="" stroke-dashoffset="0" style="mix-blend-mode: normal"><path d="M206.54774,237.12973c5.03745,0.00227 10.10072,0.55994 15.09554,1.00038c1.82336,0.16078 3.64537,-0.22313 5.4685,-0.32703c5.3101,-0.3026 10.6202,-0.6052 15.9303,-0.9078c4.09571,-0.23339 8.08616,-0.72008 12.16261,-0.03368c4.84447,-0.29424 10.19774,0.1278 14.96421,-0.84735c1.53593,-0.31423 4.55955,-2.28451 6.04124,-0.40707c1.88214,2.38488 0.62218,9.01897 -0.02603,11.82845c-0.6643,2.87927 -1.58456,5.77783 -1.70713,8.80782c-0.11196,2.76766 0.58864,5.59416 0.4815,8.36633c-0.14868,3.8475 -0.71134,7.64559 -0.47665,11.51406c0.22202,3.89606 0.27139,7.45043 0.05893,11.2878c-0.38865,7.01948 0.85151,14.70489 1.25341,21.75749c0.50284,8.82391 1.63651,17.92924 0.99377,26.72387c-4.77546,1.09006 -8.66591,0.33704 -13.43859,0.05899c-3.84984,-0.22429 -7.92078,0.46138 -11.76972,0.68071c-2.00464,0.11423 -6.66897,1.15627 -8.22479,-0.84188c-1.30799,-1.67987 -1.36312,-5.53631 -1.49462,-7.80318c-0.32543,-5.60968 -0.63939,-11.22008 -0.95908,-16.83009c-0.3565,-6.25597 -0.713,-12.51194 -1.0695,-18.7679c-0.29225,5.60972 -0.94459,11.17579 -1.94808,16.70549c-0.53205,0.67973 -1.21652,1.237 -1.59615,2.0392c-0.88252,1.86482 0.14862,5.06971 0.05069,7.02851c-0.04441,0.88849 -0.37222,1.73358 -0.42139,2.62167c-0.0954,1.72314 0.38543,3.45491 0.2951,5.17849c-0.09311,1.77663 -0.71612,3.46995 -0.84277,5.24333c-0.07862,1.10081 0.43711,2.34319 -0.0112,3.31701c-1.55356,3.37466 -5.02255,2.67058 -7.71052,2.82375c-6.06868,0.34583 -12.13737,0.69166 -18.20605,1.03749c-3.14775,0.17937 -7.73565,1.64515 -10.12927,-1.59298c-0.64881,-0.87772 -0.70685,-2.14197 -1.03044,-3.22443c-1.2107,-4.05002 -0.93853,-7.62064 -0.70994,-11.7492c0.19221,-3.4716 -0.42752,-7.26468 -0.62631,-10.7532c-0.20753,-3.64171 -0.80974,-7.61722 -0.62787,-11.25538c0.04441,-0.88849 0.39543,-1.73193 0.42139,-2.62167c0.11813,-4.05003 -0.43826,-7.76715 -0.08031,-11.85227c0.77629,-4.68341 -0.02183,-9.73501 -0.29343,-14.50124c-0.24451,-4.29068 -0.95258,-8.91568 -0.73853,-13.19731c0.08269,-1.65402 0.36899,-3.30365 0.27462,-4.95982c-0.16883,-2.96262 0.24153,-5.43858 0.72068,-8.33254c0.3604,-2.17673 0.41272,-4.26752 2.09113,-5.84666c1.11859,-1.05243 2.76031,-1.1906 3.90865,-2.20106l2.11711,-0.46585c0,0 1.39522,-0.07951 1.80903,1.29876z" fill="#bbbbbb" stroke-width="8"/><path d="M247.11924,139.23706c0,20.48509 -5.37748,37.09155 -12.01094,37.09155c-6.63346,0 -12.01094,-16.60645 -12.01094,-37.09155c0,-20.48509 5.37748,-37.09153 12.01094,-37.09153c6.63346,0 12.01094,16.60644 12.01094,37.09153z" fill="#ffd4b2" stroke-width="7"/><path d="M256.55228,155.14726c-0.92404,-1.72965 -1.70663,-3.62171 -1.15456,-5.71195c0.86349,-3.26939 2.10039,-3.97829 4.56984,-4.73702c1.98731,-0.6106 4.329,-0.51284 6.36573,-0.7467c4.18329,-0.48033 8.44411,-1.70074 12.36296,0.0103c1.35623,0.98925 2.96392,1.97509 4.02109,3.44444c3.58282,4.97972 3.56285,12.11816 5.04808,18.10001c0.23583,0.94982 0.86208,1.71039 1.08917,2.6635c0.37488,1.57334 0.00378,3.00607 0.2553,4.57328c0.47225,2.94252 1.44598,5.75255 1.8773,8.70785c0.4525,3.10038 0.35052,6.52197 0.51369,9.67935c0.46799,9.05557 0.936,18.11113 1.40399,27.16669c0.19217,3.71843 1.41943,8.03864 -1.99125,10.53933c-0.33837,0.24809 -4.47046,0.67356 -4.93157,0.7265c-2.68008,0.30774 -5.36015,0.61546 -8.04023,0.9232c-3.15303,0.36203 -6.30606,0.72407 -9.45909,1.08612c-0.8474,0.0973 -4.58469,0.55954 -4.94803,0.40788c-3.66484,-1.52962 -2.43377,-4.69032 -2.93814,-8.04296c-1.23319,-8.19746 -1.35495,-16.75169 -1.78892,-25.14887c-0.75179,-14.54698 -1.50359,-29.09396 -2.25537,-43.64094z" fill="#ff3b3b" stroke-width="7"/><path d="M258.68423,140.96367c2.93446,0 5.34127,0.50883 8.25198,0.92818c0.42232,0.06085 5.56351,0.65385 6.32631,0.87873c0.721,0.21256 1.29633,0.82151 2.03011,0.98452c0.3541,0.07866 3.00857,-0.1562 3.78493,0.28972c2.74309,1.57553 2.65674,5.51992 2.88696,8.07634c0.20118,2.23402 0.75919,4.40753 0.47926,6.69603c-0.12913,1.05572 -1.3074,4.14766 -1.40678,4.65852c-0.35014,1.79997 -0.02114,4.1173 -0.02114,5.95833c0,4.72504 0.00414,9.45848 0.00414,14.18352c0,2.00109 0.27315,4.39622 0.01462,6.40192c-0.64871,5.03278 0.03484,10.15364 -0.47967,15.20343c-0.47179,4.63062 -0.48185,9.18549 -0.48185,13.85977c0,4.95475 -0.40841,9.57765 -0.93655,14.43705c-0.3893,3.58198 0.38924,7.29404 -0.00335,10.87096c-0.1417,1.29104 -0.78553,2.4924 -0.94637,3.78119c-0.01806,0.14466 -0.01868,4.07207 -0.0011,4.21674c0.1095,0.90098 1.19263,1.84674 0.72512,2.6247c-0.13671,0.22749 -0.51765,0.13741 -0.78288,0.14702c-1.59495,0.05779 -3.19349,-0.04657 -4.78948,-0.04657c-5.80736,0 -11.56217,-0.41755 -17.31478,-0.93269c-9.4687,-0.84794 -19.11981,0.46491 -28.54341,0.46491c-2.82483,0 -5.42754,0.19601 -8.21292,0.47999c-4.06112,0.41406 -8.27815,-0.49069 -12.3332,0.00211c-2.65546,0.32272 -5.1017,0.41082 -7.81755,0.45736c-0.47173,0.00809 -0.96945,0.22135 -1.41438,0.06439c-0.73819,-0.26042 -1.28888,-0.89774 -1.9813,-1.26284c-0.42616,-0.2247 -1.02142,-0.15281 -1.35756,-0.49796c-0.61983,-0.63644 -0.08381,-1.77613 -0.08088,-2.66452l-0.00125,-4.72612c0,-9.35569 -0.48093,-18.55751 -0.48093,-27.88918c0,-2.83502 -0.00206,-5.6757 -0.00206,-8.51073c0,-1.30512 -0.32918,-2.64714 -0.03285,-3.91817c0.19258,-0.82602 0.78398,-1.53145 0.94474,-2.36426c0.0397,-0.20562 0.03189,-3.99047 0.03189,-4.59356c0,-7.1885 0.69705,-14.77515 -0.00518,-21.92727c-0.55077,-5.6095 -0.54486,-11.06903 0.00778,-16.69517c0.21026,-2.14061 -0.06329,-3.95196 0.46717,-6.07382c0,-2.09865 0.68383,-3.62083 0.9469,-5.67177c0.23985,-1.86989 0.73991,-3.79879 0.94679,-5.67148c0.05236,-0.47399 -0.24493,-0.96482 -0.12209,-1.42562c0.29775,-1.11693 2.9281,-0.79493 3.55112,-0.78995l0.94535,-0.00022c0,0 0.73499,-0.00037 1.2613,-0.47162c18.63805,0.02673 37.28899,0.46809 55.94299,0.46809z" data-paper-data="{&quot;noHover&quot;:false,&quot;origItem&quot;:[&quot;Path&quot;,{&quot;applyMatrix&quot;:true,&quot;segments&quot;:[[[108.01949,361.44375],[52.24792,0.07493],[-1.47539,1.32105]],[104.48536,362.76479],[[101.83622,362.76479],[0,0],[-1.74654,-0.01396]],[[91.88539,364.97648],[0.83467,-3.13108],[-0.34434,1.29172]],[[92.22853,368.97224],[0.14679,-1.32874],[-0.57997,5.2497]],[[89.57939,384.86704],[0.67237,-5.24185],[-0.73747,5.74939]],[[86.93026,400.76184],[0,-5.88312],[-1.48706,5.94822]],[[85.62612,417.7827],[0.58944,-6.00077],[-1.54922,15.77173]],[[85.61882,464.562],[-1.54396,-15.72505],[1.96856,20.04952]],[[85.64316,525.98476],[0,-20.15148],[0,1.69067]],[[85.55294,538.8514],[0.11127,-0.57643],[-0.45065,2.33457]],[[82.9038,545.47423],[0.53987,-2.31557],[-0.83072,3.56309]],[[82.99402,556.44979],[0,-3.65864],[0,7.9474]],[[82.99402,580.29199],[0,-7.9474],[0,26.15941]],[[84.31859,658.44142],[0,-26.22676],[0,0]],[[84.31859,671.68709],[0,0],[-0.00825,2.49041]],[[84.54337,679.15499],[-1.73757,-1.78412],[0.9423,0.96754]],[[88.34747,680.54973],[-1.19468,-0.62992],[1.94107,1.02347]],[[93.89892,684.08788],[-2.06937,-0.73003],[1.24725,0.44]],[[97.86252,683.90646],[-1.32239,0.02266],[7.61333,-0.13047]],[[119.76924,682.61935],[-7.44405,0.90467],[11.36748,-1.38148]],[[154.3262,682.60622],[-11.38454,1.16071],[7.80821,-0.79609]],[[177.33652,681.25732],[-7.91882,0],[26.41712,0]],[[257.30321,679.95709],[-26.54355,-2.377],[16.12624,1.44412]],[[305.81949,682.58189],[-16.27974,0],[4.47404,0]],[[319.24095,682.71564],[-4.47111,0.16198],[0.74353,-0.02694]],[[321.43473,682.3041],[-0.38324,0.63772],[1.31056,-2.18081]],[[319.40088,674.94714],[0.30695,2.52572],[-0.04929,-0.40554]],[[319.40088,663.12877],[-0.05061,0.40554],[0.4509,-3.61286]],[[322.05001,652.53224],[-0.39721,3.61915],[1.10051,-10.02715]],[[322.05001,622.06721],[-1.09133,10.04133],[1.48053,-13.62233]],[[324.66169,581.61656],[0,13.88961],[0,-13.10337]],[[326.00329,542.79172],[-1.32258,12.981],[1.4423,-14.15605]],[[327.34828,500.20708],[-1.81851,14.10835],[0.72473,-5.62259]],[[327.31082,482.27406],[0,5.60964],[0,-13.24567]],[[327.31082,442.53706],[0,13.24567],[0,-5.16094]],[[327.37538,425.84135],[-0.98154,5.04585],[0.27858,-1.43209]],[[331.32198,412.78568],[-0.362,2.95949],[0.78472,-6.41533]],[[329.98429,394.02078],[0.56397,6.26262],[-0.64536,-7.1664]],[[321.89992,371.38776],[7.68969,4.41669],[-2.17638,-1.25004]],[[311.29355,370.57844],[0.99264,0.22051],[-2.05704,-0.45696]],[[305.60537,367.82042],[2.02118,0.59588],[-2.13833,-0.63041]],[[287.87889,365.36164],[1.1839,0.17057],[-8.15955,-1.17557]],[[264.75792,362.76479],[8.22615,0],[-52.29265,0]]],&quot;closed&quot;:true}]}" fill="#ff3b3b" stroke-width="7"/><path d="M213.7142,153.62803c0.46113,14.95945 0.92226,29.9189 1.38339,44.87836c0.26619,8.63528 0.79546,17.41039 0.40298,25.89505c-0.16052,3.4701 1.06329,6.62611 -1.77768,8.44165c-0.28167,0.18 -3.3271,-0.04093 -4.01708,-0.08334c-2.5673,-0.15776 -5.13457,-0.31553 -7.70187,-0.4733c-2.1822,-0.1341 -4.36439,-0.2682 -6.54659,-0.40229c-0.37545,-0.02307 -3.73632,-0.17962 -4.02718,-0.411c-2.93176,-2.33215 -2.25969,-6.84277 -2.37756,-10.66663c-0.28705,-9.31233 -0.5741,-18.62467 -0.86116,-27.937c-0.10009,-3.2469 -0.43322,-6.74665 -0.29599,-9.95472c0.13081,-3.05794 0.70936,-6.00368 0.87408,-9.05129c0.08774,-1.62317 -0.31638,-3.06641 -0.1297,-4.70423c0.11309,-0.99216 0.56195,-1.814 0.68231,-2.80338c0.75808,-6.23102 0.21844,-13.54556 2.74027,-18.89141c0.74411,-1.57738 1.9673,-2.69646 2.9876,-3.80205c3.03235,-2.01866 6.55527,-1.05611 9.96142,-0.8468c1.65837,0.10191 3.53815,-0.15667 5.18432,0.33468c2.04555,0.61056 3.09425,1.25342 4.02984,4.54568c0.59817,2.10487 0.10632,4.09689 -0.51142,5.93204z" fill="#ff3b3b" stroke-width="7"/><path d="M292.6924,81.11075c0,26.08733 -21.26105,47.23528 -47.48788,47.23528c-26.22683,0 -47.48788,-21.14796 -47.48788,-47.23528c0,-26.08732 21.26106,-47.23529 47.48789,-47.23529c26.22683,0 47.48788,21.14796 47.48788,47.23529z" fill="#ffd4b2" stroke-width="7"/><path d="M261.97965,33.37279v0v0z" fill="#ffd4b2" stroke-width="7"/><path d="M200.39983,46.14092c0.83684,-1.14309 1.68943,-2.29706 2.48744,-3.41596c0.43303,-0.60717 0.53568,-1.42507 1.02258,-1.98996c1.85177,-2.1484 4.68429,-4.10894 7.04672,-5.57193c1.71947,-1.06482 3.08112,-3.51088 4.84659,-4.32123c2.01688,-0.92575 5.23849,-1.00316 7.47112,-1.56194c5.99476,-1.4987 12.06841,-1.41473 18.16981,-1.92991c1.2175,-0.1028 2.13729,-1.18641 3.23141,-1.73026c1.31788,-0.65508 2.70879,-1.18687 4.13679,-1.54292c0.67344,-0.16791 1.39341,0.0535 2.08188,-0.03435c4.84843,-0.61871 9.43777,-0.95837 14.39303,-0.95837c1.26001,0 2.52002,0 3.78002,0h1.89002c0.98506,0 1.78362,0.79856 1.78362,1.78362c0,0.71202 -0.41722,1.3266 -1.02052,1.61259l-1.85545,0.92773c-1.4353,1.19666 -2.94098,1.8642 -4.3333,2.77899c2.22182,0.21692 4.79222,0.77381 6.91943,1.48865c2.85829,0.96052 6.51867,2.7289 8.9992,4.50269c1.63441,1.16874 2.70139,3.09896 4.3073,4.29362c0.73685,0.54816 1.63642,0.85519 2.36252,1.41751c1.2027,0.93143 1.82763,2.43264 2.7118,3.67048c1.82392,2.55348 3.70021,4.49204 4.93414,7.46803c0.83249,2.08499 1.81663,3.96577 2.36723,6.13819l0.86352,1.72704c0.13049,0.24786 0.20435,0.53018 0.20435,0.82975c0,0.98506 -0.79856,1.78362 -1.78362,1.78362c-0.16317,0 -0.32124,-0.02192 -0.47139,-0.06296l-1.85121,-0.4628l0.01938,-0.07753c-0.15637,-0.0252 -0.31163,-0.05823 -0.46558,-0.10073c-0.72727,-0.20077 -1.03429,-1.1091 -1.63638,-1.56375c-1.81466,-1.37029 -4.18674,-2.16467 -6.24806,-3.0863c-2.15741,-0.96459 -4.38658,-1.00273 -6.52755,-1.85348c-0.80038,-0.31805 -1.37165,-1.11108 -2.19546,-1.36223c-0.27791,-0.08473 -0.5662,-0.09341 -0.85842,-0.0733c0.04339,0.35125 0.05261,0.72138 0.17233,1.0431c0.81149,2.18085 2.06462,4.23605 2.91363,6.42407l-0.09303,0.33729h0.12523v1.89002c0,0.98506 -0.79856,1.78362 -1.78362,1.78362c-0.49253,0 -0.93844,-0.19964 -1.26121,-0.52241l-1.89001,-1.89002c-0.58149,-0.44478 -1.1188,-0.96553 -1.60324,-1.63582c-1.77239,-2.45231 -2.74404,-4.07709 -5.55389,-5.62192c-2.04638,-1.12507 -3.69814,-1.51332 -5.86311,-2.23897c-0.49683,-0.16652 -0.96298,-0.41901 -1.40985,-0.69718c0.43378,0.65805 0.75577,1.50364 0.82651,1.69881c1.01296,2.79511 0.56261,6.0541 1.04972,8.97677l-0.04249,0.14712h0.04857v2.36252c0,0.98506 -0.79856,1.78362 -1.78362,1.78362c-0.59095,0 -1.11479,-0.2874 -1.43934,-0.73005l-1.40506,-1.87341l0.02416,-0.01812c-0.03854,-0.03769 -0.07671,-0.0758 -0.1145,-0.11435c-0.49301,-0.50307 -0.57236,-1.2923 -0.94501,-1.89002c-0.43878,-0.70379 -1.11154,-1.25699 -1.48016,-1.99993c-0.40637,-0.81902 -0.30902,-1.85644 -0.81207,-2.61991c-0.38218,-0.58004 -1.21074,-0.71038 -1.70427,-1.1992c-0.53807,-0.53292 -0.78511,-1.32327 -1.35087,-1.82671c-1.23492,-1.09893 -3.14035,-1.4617 -4.6231,-2.2493c0.26105,0.58825 0.65089,1.11972 0.87543,1.72348c1.27789,3.43611 1.05579,6.95127 1.05579,10.54139v1.89002c0,0.98506 -0.79855,1.78362 -1.78361,1.78362c-0.49253,0 -0.93844,-0.19964 -1.26121,-0.52241l-1.41751,-1.41752c-3.10307,-2.18294 -5.01639,-6.4767 -8.48291,-8.15578c-0.53696,-0.26009 -1.18329,-0.20161 -1.74228,-0.41017c-1.20004,-0.44773 -2.39075,-0.9204 -3.5938,-1.35998c-0.31516,-0.11515 -0.53244,-0.59173 -0.86066,-0.52204c-0.68859,0.14623 -0.25069,1.39554 -0.23066,2.0992c0.05296,1.86071 0.10493,3.81179 0,5.67005c-0.05338,0.94524 0.34166,2.10203 -0.26637,2.82772c-3.66819,4.37796 -6.73004,-1.15663 -10.45489,-2.04236c-1.18955,-0.29739 -2.34814,-0.75742 -3.56536,-0.90512c-0.55323,-0.06713 -1.13982,0.14302 -1.68076,0.0522c0.22905,1.16639 0.04579,2.40996 -0.11108,3.59301c-0.30458,2.29695 -1.51973,4.22266 -2.53746,6.24977c-0.84223,1.67756 -2.73571,3.47607 -3.16693,5.28218c-0.6421,2.68931 0.22001,6.164 0.50685,8.82235c0.07763,0.71947 -0.18987,1.46392 -0.03435,2.17066c0.28754,1.30666 1.08103,2.46088 1.41198,3.75723c0.78093,3.12375 1.7271,6.21323 3.17248,9.085c0.43311,0.86052 2.17816,4.19779 2.05528,4.86339c-0.20259,1.09746 -1.28902,1.85113 -2.1352,2.57875c-2.62644,2.25845 -5.86604,2.53108 -9.03555,1.70093c-0.782,-0.20483 -1.62931,-0.25861 -2.33621,-0.65077c-0.63994,-0.35501 -0.98747,-1.09542 -1.58162,-1.52266c-0.64745,-0.46558 -1.55244,-0.55896 -2.10832,-1.13074c-1.27061,-1.30694 -1.09415,-2.62919 -2.07575,-3.99834c-0.43436,-0.60587 -1.20873,-0.95252 -1.54314,-1.6188c-0.40224,-0.80142 -0.30201,-1.77508 -0.58701,-2.62529c-0.44328,-1.32237 -1.25781,-2.48974 -1.87577,-3.74007c-1.12912,-4.42296 -2.83992,-9.10382 -3.40495,-13.63099c-0.46235,-3.7045 -0.41569,-8.54419 0,-12.24845c0.33679,-3.00122 1.91012,-5.23867 2.93245,-7.96095c0.88943,-2.36841 1.26359,-5.10626 1.89002,-7.56006c1.24675,-2.49351 1.30945,-5.92935 3.13848,-8.0841c1.04127,-1.22672 2.73081,-1.70314 4.05005,-2.62665z" fill="#98765d" stroke-width="7"/><path d="M242.41712,78.79046c0,-0.74364 2.96221,-1.34649 6.6163,-1.34649c3.65408,0 6.6163,0.60285 6.6163,1.34649c0,0.74364 -2.96221,1.34649 -6.6163,1.34649c-3.65408,0 -6.6163,-0.60285 -6.6163,-1.34649z" fill="#98765d" stroke-width="7"/><path d="M270.15132,77.62245c0,-0.74364 2.9622,-1.3465 6.61629,-1.3465c3.65408,0 6.6163,0.60285 6.6163,1.3465c0,0.74364 -2.96222,1.34649 -6.6163,1.34649c-3.65408,0 -6.61629,-0.60285 -6.61629,-1.34649z" fill="#98765d" stroke-width="7"/></g></g></svg>